<?xml version="1.0" encoding="utf-8"?>
<!-- Generator: Adobe Illustrator 28.1.0, SVG Export Plug-In . SVG Version: 6.00 Build 0)  -->
<svg version="1.1" id="Layer_1" xmlns="http://www.w3.org/2000/svg" xmlns:xlink="http://www.w3.org/1999/xlink" x="0px" y="0px"
	 viewBox="0 0 2880 2880" style="enable-background:new 0 0 2880 2880;" xml:space="preserve">
<style type="text/css">
	.st0{opacity:0.5;}
	.st1{fill:#323031;}
	.st2{fill:#FFF200;}
</style>
<g class="st0">
	<path class="st1" d="M1452.53,1016.09c-80.57,0-145.91-65.3-145.91-145.89c0-80.58,65.34-145.89,145.91-145.89
		c80.55,0,145.89,65.31,145.89,145.89C1598.42,950.79,1533.08,1016.09,1452.53,1016.09z"/>
	<path class="st1" d="M1184.34,1143.92c8.38-60.08,63.86-108.73,123.91-108.73h63.48c0,0,35.3,37.19,80.8,37.19
		c45.49,0,80.79-37.19,80.79-37.19h63.48c60.04,0,115.53,48.65,123.92,108.73l49.61,406.67c2.26,25.9-16.89,48.72-42.8,51.03
		c-25.88,2.24-48.72-16.89-51.01-42.82c0,0-35.94-221.51-41.97-250.5c0,0-6.57-45.9-19.9-45.9c-7.71,0-8.41,12.23-8.41,12.23v218.94
		l46.31,642.29c3.1,34.98-22.83,65.84-57.8,68.89c-35,3.08-65.86-22.82-68.96-57.83l-60.13-479.21
		c-1.06-6.57-5.34-12.87-13.12-12.87c-7.79,0-12.06,6.3-13.13,12.87l-60.13,479.21c-3.1,35.02-33.96,60.92-68.96,57.83
		c-34.96-3.05-60.9-33.91-57.8-68.89l46.32-642.29v-218.94c0,0-0.7-12.23-8.43-12.23c-10.87,0-19.9,45.9-19.9,45.9
		c-6.03,28.98-41.97,250.5-41.97,250.5c-2.28,25.93-25.13,45.07-51.01,42.82c-25.92-2.31-45.05-25.13-42.81-51.03L1184.34,1143.92z"
		/>
</g>
<g>
	<path class="st2" d="M904.81,1515.95c-72.51,0-131.3-58.77-131.3-131.28c0-72.54,58.79-131.31,131.3-131.31
		s131.31,58.77,131.31,131.31C1036.13,1457.18,977.32,1515.95,904.81,1515.95z"/>
	<path class="st2" d="M622,1767.89l73.18-154.84c30.16-63.09,76.11-81.09,136.16-81.09c0,0,27.99,28.95,73.48,28.95
		c45.5,0,73.48-28.95,73.48-28.95c60.06,0,77.1,2.41,144.01,37.16l35.6-84.14c8.16-21.71,15.14-31.13,46.06-25.13
		c23.61,4.59,22.35,29.89,12.67,61.65l-36.84,128.16c-8.21,34.14-33.78,40.54-68.57,34.68c0,0-54.97-7.87-79.18-19v108.5
		l31.14,351.25c1.93,18.63,18.63,35.32,18.63,54.01c0,18.06-17.37,25.57-35.38,25.57h-25.31c-18.01,0-46.46-11.39-49.56-32.6
		l-51.03-245.3c-5.6-24.29-15.71-37.46-15.71-37.46s-10.1,13.17-15.7,37.46l-51.05,245.3c-3.08,21.21-31.53,32.6-49.56,32.6h-25.3
		c-18.03,0-35.38-7.51-35.38-25.57c0-18.7,16.7-35.38,18.63-54.01l31.14-351.25v-78.07c-25.1,0-36.04,20.81-36.04,20.81
		l-60.01,86.05c-14.58,22.32-31.33,25.67-46.36,18.83C613.3,1811.48,611.84,1791.58,622,1767.89z"/>
</g>
<g class="st0">
	<path class="st1" d="M2003.86,1015.79c80.55,0,145.89-65.34,145.89-145.89c0-80.58-65.34-145.92-145.89-145.92
		c-80.57,0-145.91,65.34-145.91,145.92C1857.95,950.46,1923.29,1015.79,2003.86,1015.79z"/>
	<path class="st1" d="M2286.35,1396.43c5.08-6.1,8.46-12.5,11.16-19c-10.96,12.77-27.46,22.32-54.01,22.32
		c-24.33-2.68-32.85-12.36-32.85-12.36s4.39-29.96-4.32-63.83c-7.25-28.31-11.56-50.66-29.74-67.95c0.02,0,0.02,0,0.02-0.03
		c-18.73-5.19-36.61-11.39-42.49-13.33c-10.3-3.32-30.96-8.75-48.99,4.42c-24.19,17.69-62.66,74.15-72.24,77.94
		c-14.46,7.91-24.51,0.8-29.33,2.68c-8.61,3.35-15.88,18.83-3.13,35.32c8.11,10.52,30.68,32.43,49.79,30.73
		c19.1-1.78,64.84-61.89,82.21-66.04c17.39-4.12,36.4,15.21,60.2,34.41c-6,4.39-12.05,8.24-18.13,11.83
		c-7.89,4.59-15.83,8.71-23.87,12.06l-13.6-38.06c-4.17,2.24-18.03,15.92-27.31,25.1c-24.85,24.53-40.91,39.67-57.61,41.21
		c-35.33,2.91-66.7-36.99-67.97-38.63c-10.12-13.1-13.54-28.05-9.63-42.09c3.22-11.63,11.29-20.97,21.58-25
		c4.93-1.94,10.05-2.24,17.71-0.84c2.13,0.33,3.58,2.31,9.16-0.7c3.74-3.32,13.44-15.11,20.61-23.82
		c15.95-19.43,34.03-41.42,49.46-52.71c11.21-8.21,24.24-12.4,38.73-12.4c11.95,0,22.12,2.88,28.73,5.02l3.82,1.27
		c4.98,1.67,12.68,4.25,21.41,6.97c0.22-0.33,0.42-0.6,0.64-0.94c-1.21-5.43-2.55-10.92-3.92-15.38c-0.17-0.6-0.33-1.07-0.47-1.47
		c-0.44-0.1-0.9-0.17-1.39-0.23c-1.93-0.4-4-0.77-6.23-1.31c-39.09-9.32-55.69-15.82-84.27-28.38
		c-33.29-14.94-41.16-36.82-42.92-48.52c-2.46-16.59,3.84-32.87,17.32-44.66c9.31-8.14,19.22-12.13,30.26-12.13
		c11.16,0,21.19,4.05,32.82,8.78c4.49,1.81,9.5,3.85,15.16,5.86c25.8,9.18,46.06,11.59,67.73,10.86
		c-22.52-11.09-40.66-29.52-51.15-52.37c-16.92-6.74-35.03-10.66-53.49-10.66c0,0-36.44,37.19-81.92,37.19
		c-45.5,0-81.92-37.19-81.92-37.19c-60.06,0-118.01,37.33-134.4,100.55l-92.13,363.45c-4.56,21.58,9.21,42.85,30.83,47.45
		c21.61,4.59,42.89-9.21,47.48-30.83c0,0,61.08-202.32,69.14-226.14c0,0,12.04-37.7,18.98-37.7c5.7,0,8.43,12.23,8.43,12.23
		l20.61,77.64l-139.22,389.82c0,0,64.67,17.76,147.6,27.88l15.38,407.38c1.56,17.99,17.39,32.6,35.4,32.6H1979
		c13.75,0,24.9-11.12,24.9-24.86c0,13.74,11.14,24.86,24.88,24.86h28.93c18.01,0,33.86-14.61,35.4-32.6l15.38-407.38
		c82.93-10.12,147.61-27.88,147.61-27.88l-94.29-263.97c38.48-16.32,78.26-38.8,103.55-57.73
		C2274.49,1408.26,2281.76,1401.86,2286.35,1396.43z"/>
	<path class="st1" d="M2238.27,1094.33c48.84,0,88.41-39.57,88.41-88.49c0-48.79-39.57-88.46-88.41-88.46
		c-48.85,0-88.47,39.67-88.47,88.46C2149.79,1054.76,2189.42,1094.33,2238.27,1094.33z"/>
	<path class="st1" d="M2256.75,1274c43.86,9.01,58.15-7.34,59-8.41c-3.59-41.78-9.35-92.38-9.35-92.38
		c0-47.55-30.69-59.57-71.74-53.21c-40.21,4.42-66.53,10.52-118.88-8.08c-28.95-10.29-41.35-20.78-57.8-6.4
		c-18.13,15.85-14.74,43.06,20.36,58.84c27.48,12.06,43.06,18.2,80.75,27.17c11.63,2.78,18.18,1.07,23.02,17.05
		c2.51,8.24,5.65,22.08,7.39,33.17l0.02-0.03C2189.52,1241.73,2211.45,1264.68,2256.75,1274z"/>
</g>
</svg>
