<?xml version="1.0" encoding="UTF-8"?>
<svg id="Layer_1" data-name="Layer 1" xmlns="http://www.w3.org/2000/svg" version="1.1" viewBox="0 0 2880 2880">
  <defs>
    <style>
      .cls-1 {
        fill: #f42c7d;
        stroke-width: 0px;
      }

      .cls-2 {
        fill: none;
        stroke: #f42c7d;
        stroke-miterlimit: 10;
        stroke-width: 65px;
      }
    </style>
  </defs>
  <path class="cls-2" d="M2834.3,1438.6c0,422.2-186.9,799.9-482.8,1056.4-244.8,212.1-564,340.3-913.1,340.3s-668.3-128.2-913.1-340.3C229.2,2239.2,42.4,1860.8,42.4,1438.6,42.4,667.4,667.8,42.7,1438.3,42.7s1395.9,625.4,1395.9,1395.9h0Z"/>
  <path class="cls-1" d="M2350.8,2495c-244.8,212.1-564,340.3-913.1,340.3s-668.3-128.2-913.1-340.3c11.6-89.4,30-180.7,60-257.8,92-237.3,662.2-210.7,417.4-328.7-244.8-118.7-268-531.9-112.5-1019.5,155.5-487.6,548.3-357.4,548.3-357.4,0,0,393.4-130.2,548.3,357.4,155.5,487.6,132.3,900.9-112.5,1019.5s325.3,92,417.4,328.7c30,77,48.4,169.1,60,257.8h0Z"/>
</svg>