<?xml version="1.0" encoding="UTF-8"?>
<svg id="Layer_1" data-name="Layer 1" xmlns="http://www.w3.org/2000/svg" version="1.1" viewBox="0 0 2880 2880">
  <defs>
    <style>
      .cls-1 {
        fill: #289fe8;
        stroke-width: 0px;
      }

      .cls-2 {
        fill: none;
        stroke: #289fe8;
        stroke-miterlimit: 10;
        stroke-width: 65px;
      }
    </style>
  </defs>
  <path class="cls-2" d="M2838.9,1439.4c0,367.1-141.5,701.4-372.6,950.9-255.7,276.2-621.4,448.5-1026.8,448.5s-771.1-173-1026.8-448.5c-231-249.5-372.6-583.8-372.6-950.9C40.2,666.3,667.1,40.1,1439.6,40.1s1399.4,626.9,1399.4,1399.4h0Z"/>
  <path class="cls-1" d="M2465.7,2390.4c-255.7,276.2-621.4,448.5-1026.8,448.5s-771.1-173-1026.8-448.5c84.1-168.1,453.9-256.4,663.8-293.3,37-96.4,97.8-82.1,97.8-82.1,0-17.7-1.4-30.1-1.4-30.1-9.6-6.2-19.1-12.4-28.7-17.7-58.8-34.2-160-169.5-202.4-412.2-5.5,9.6-12.4,14.3-21.9,12.9-68.3-7.5-110.8-265.2-65.6-293.9,15-9.6,28.7-11.7,41-10.3-2.7-49.2-7.5-114.8-15-201-22.6-253.6,47.2-426.6,311-516.1,263.8-89.5,391.7,24.6,391.7,24.6,261.1-47.2,428,187.3,419.7,366.4-4.8,99.8-8.9,229.7-11.7,325.4,10.3,0,21.9,2.7,34.2,11,44.4,28.7,2.7,286.4-65.6,293.9-9.6,1.4-17.1-4.1-21.9-12.9-42.4,242.7-143.5,378.1-202.4,412.2-9.6,5.5-19.1,11.7-28.7,17.7,0,0,0,12.4-1.4,30.1,0,0,61.6-14.3,97.8,82.1,209.9,37.6,580.4,125.8,663.8,293.3h-.7.2Z"/>
</svg>