<?xml version="1.0" encoding="utf-8"?>
<!-- Generator: Adobe Illustrator 28.7.1, SVG Export Plug-In . SVG Version: 9.03 Build 54978)  -->
<svg version="1.0" id="Layer_1" xmlns="http://www.w3.org/2000/svg" xmlns:xlink="http://www.w3.org/1999/xlink" x="0px" y="0px"
	 viewBox="0 0 504 502" enable-background="new 0 0 504 502" xml:space="preserve">
<path fill="none" stroke="#00AFAA" stroke-width="40" stroke-linecap="round" stroke-miterlimit="10" d="M227.3,358.4
	c-14-21.7-22-47.6-22-75.3c0-77.1,62.5-139.7,139.7-139.7S484.6,205.9,484.6,283s-62.5,139.7-139.7,139.7
	c-22.9,0-44.6-5.5-63.7-15.3"/>
<path fill="none" stroke="#00AFAA" stroke-width="40" stroke-linecap="round" stroke-miterlimit="10" d="M197.9,146.6
	c8.9,2.5,17.4,5.9,25.5,10"/>
<path fill="none" stroke="#00AFAA" stroke-width="30" stroke-linecap="round" stroke-miterlimit="10" d="M159.7,141.4"/>
<path fill="none" stroke="#00AFAA" stroke-width="40" stroke-linecap="round" stroke-miterlimit="10" d="M277.3,205.7
	c14,21.7,22,47.6,22,75.3c0,77.1-62.5,139.7-139.7,139.7S20,358.2,20,281c0-63.1,41.8-116.4,99.2-133.7"/>
<g>
	<polygon fill="#00AFAA" points="111.5,39.2 139.6,39.2 122.3,69.2 94.2,69.2 	"/>
	<polygon fill="#00AFAA" points="204.8,39.2 176.7,39.2 194,69.2 222.1,69.2 	"/>
	<polygon fill="#00AFAA" points="185.4,69.2 168.1,39.2 148.1,39.2 130.8,69.2 	"/>
</g>
<g>
	<polygon fill="#00AFAA" points="158.1,160 184.4,75 129.8,75 	"/>
	<polygon fill="#00AFAA" points="150,152 124.3,74.6 97.8,74.6 	"/>
	<polygon fill="#00AFAA" points="166.3,152 192.1,74.6 218.5,74.6 	"/>
</g>
</svg>
