<?xml version="1.0" encoding="utf-8"?>
<!-- Generator: Adobe Illustrator 28.1.0, SVG Export Plug-In . SVG Version: 6.00 Build 0)  -->
<svg version="1.1" id="_x31_" xmlns="http://www.w3.org/2000/svg" xmlns:xlink="http://www.w3.org/1999/xlink" x="0px" y="0px"
	 viewBox="0 0 100 100" style="enable-background:new 0 0 100 100;" xml:space="preserve">
<style type="text/css">
	.st0{fill:#C8D6E4;}
	.st1{fill:#8496A5;}
	.st2{fill:#FDC960;}
	.st3{fill:#51DCF9;}
	.st4{fill:#FD9D4C;}
	.st5{fill:#332195;}
</style>
<g>
	<path class="st0" d="M52.72,34.23c4.8-3.71,10.92-4.56,16.3-2.83v-7.17H7.78v25.53c0,2.15,1.75,3.9,3.9,3.9h34.98
		C44.47,46.76,46.66,38.91,52.72,34.23z M11.51,29.31c0-1.38,1.12-2.5,2.5-2.5h17.41c1.38,0,2.5,1.12,2.5,2.5v9.01
		c0,1.38-1.12,2.5-2.5,2.5H14.01c-1.38,0-2.5-1.12-2.5-2.5V29.31z M41.51,51.52c-1.22,0-2.44,0-3.65,0c-8.54,0-17.09,0-25.63,0
		c-1.29,0-1.29-2,0-2c1.22,0,2.43,0,3.65,0c8.54,0,17.09,0,25.63,0C42.8,49.51,42.8,51.52,41.51,51.52z M41.51,46.27
		c-1.22,0-2.44,0-3.65,0c-8.54,0-17.09,0-25.63,0c-1.29,0-1.29-2,0-2c1.22,0,2.43,0,3.65,0c8.54,0,17.09,0,25.63,0
		C42.8,44.27,42.8,46.27,41.51,46.27z"/>
	<path class="st1" d="M69.02,49.76V33.51c-1.1-0.41-2.26-0.69-3.45-0.85c-0.68-0.09-1.36-0.13-2.04-0.13c-3.46,0-6.8,1.13-9.59,3.28
		c-5.55,4.29-7.45,11.58-5.17,17.85h16.34C67.27,53.66,69.02,51.91,69.02,49.76z"/>
	<path class="st2" d="M69.02,20c0-2.15-1.75-3.9-3.9-3.9H11.68c-2.15,0-3.9,1.75-3.9,3.9v2.23h61.24V20z M45.47,20.82
		c-0.99,0-1.79-0.8-1.79-1.79c0-0.99,0.8-1.79,1.79-1.79s1.79,0.8,1.79,1.79C47.26,20.02,46.46,20.82,45.47,20.82z M53.13,20.82
		c-0.99,0-1.79-0.8-1.79-1.79c0-0.99,0.8-1.79,1.79-1.79c0.99,0,1.79,0.8,1.79,1.79C54.91,20.02,54.11,20.82,53.13,20.82z
		 M60.78,20.82c-0.99,0-1.79-0.8-1.79-1.79c0-0.99,0.8-1.79,1.79-1.79c0.99,0,1.79,0.8,1.79,1.79
		C62.57,20.02,61.77,20.82,60.78,20.82z"/>
	<path class="st3" d="M76.02,38.65c-1.37-1.78-3.08-3.21-5-4.24v15.35c0,3.26-2.65,5.9-5.9,5.9H49.67c0.41,0.77,0.88,1.51,1.43,2.23
		c5.3,6.87,15.21,8.14,22.08,2.84c3.33-2.57,5.46-6.28,5.99-10.45C79.71,46.11,78.59,41.98,76.02,38.65z"/>
	<path class="st4" d="M82.28,66.03c-0.21-0.27-0.51-0.45-0.85-0.49c-0.06-0.01-0.11-0.01-0.17-0.01c-0.28,0-0.56,0.09-0.78,0.27
		l-4.23,3.26c-0.56,0.43-0.67,1.24-0.23,1.81l9.68,12.53c0.43,0.56,1.24,0.67,1.81,0.23l4.23-3.26c0.27-0.21,0.45-0.51,0.49-0.86
		c0.04-0.34-0.05-0.68-0.26-0.95L82.28,66.03z"/>
	<path class="st4" d="M14.01,38.83h17.41c0.28,0,0.5-0.22,0.5-0.5v-9.01c0-0.28-0.22-0.5-0.5-0.5H14.01c-0.28,0-0.5,0.22-0.5,0.5
		v9.01C13.51,38.6,13.74,38.83,14.01,38.83z"/>
	<path class="st5" d="M83.86,64.8c-0.54-0.7-1.31-1.14-2.19-1.25c-0.87-0.11-1.73,0.12-2.43,0.66l-1.32,1.02l-2.74-3.55
		c3.31-2.86,5.42-6.78,5.98-11.15c0.6-4.7-0.66-9.35-3.55-13.11c-1.8-2.33-4.08-4.09-6.58-5.25V20c0-3.26-2.65-5.9-5.9-5.9H11.68
		c-3.26,0-5.9,2.65-5.9,5.9v29.76c0,3.26,2.65,5.9,5.9,5.9h35.76c0.55,1.2,1.24,2.36,2.08,3.45c3.49,4.52,8.75,6.89,14.06,6.89
		c3.47,0,6.97-1.02,10.01-3.1l2.74,3.55l-1.32,1.02c-1.44,1.11-1.7,3.18-0.59,4.62l9.68,12.53c0.65,0.84,1.62,1.28,2.61,1.28
		c0.7,0,1.41-0.22,2.01-0.68l4.23-3.26c0.7-0.54,1.14-1.31,1.25-2.18c0.11-0.87-0.12-1.74-0.66-2.43L83.86,64.8z M7.78,20
		c0-2.15,1.75-3.9,3.9-3.9h53.44c2.15,0,3.9,1.75,3.9,3.9v2.23H7.78V20z M46.66,53.66H11.68c-2.15,0-3.9-1.75-3.9-3.9V24.23h61.24
		v7.17c-5.38-1.73-11.5-0.88-16.3,2.83C46.66,38.91,44.47,46.76,46.66,53.66z M48.78,53.66c-2.28-6.27-0.39-13.56,5.17-17.85
		c2.78-2.15,6.13-3.28,9.59-3.28c0.68,0,1.36,0.04,2.04,0.13c1.19,0.15,2.35,0.44,3.45,0.85v16.25c0,2.15-1.75,3.9-3.9,3.9H48.78z
		 M73.18,60.73c-6.87,5.3-16.77,4.03-22.08-2.84c-0.55-0.71-1.02-1.46-1.43-2.23h15.45c3.26,0,5.9-2.65,5.9-5.9V34.41
		c1.92,1.03,3.62,2.47,5,4.24c2.57,3.33,3.69,7.46,3.15,11.63C78.64,54.45,76.51,58.16,73.18,60.73z M92.21,79.51
		c-0.04,0.34-0.22,0.65-0.49,0.86l-4.23,3.26c-0.56,0.43-1.37,0.33-1.81-0.23l-9.68-12.53c-0.43-0.56-0.33-1.37,0.23-1.81l4.23-3.26
		c0.23-0.18,0.5-0.27,0.78-0.27c0.06,0,0.11,0,0.17,0.01c0.34,0.04,0.64,0.22,0.85,0.49l9.68,12.53
		C92.16,78.83,92.26,79.17,92.21,79.51z"/>
	<path class="st5" d="M45.47,17.25c-0.99,0-1.79,0.8-1.79,1.79c0,0.99,0.8,1.79,1.79,1.79s1.79-0.8,1.79-1.79
		C47.26,18.05,46.46,17.25,45.47,17.25z"/>
	<path class="st5" d="M53.13,17.25c-0.99,0-1.79,0.8-1.79,1.79c0,0.99,0.8,1.79,1.79,1.79c0.99,0,1.79-0.8,1.79-1.79
		C54.91,18.05,54.11,17.25,53.13,17.25z"/>
	<path class="st5" d="M60.78,17.25c-0.99,0-1.79,0.8-1.79,1.79c0,0.99,0.8,1.79,1.79,1.79c0.99,0,1.79-0.8,1.79-1.79
		C62.57,18.05,61.77,17.25,60.78,17.25z"/>
	<path class="st5" d="M14.01,40.83h17.41c1.38,0,2.5-1.12,2.5-2.5v-9.01c0-1.38-1.12-2.5-2.5-2.5H14.01c-1.38,0-2.5,1.12-2.5,2.5
		v9.01C11.51,39.71,12.63,40.83,14.01,40.83z M13.51,29.31c0-0.28,0.23-0.5,0.5-0.5h17.41c0.28,0,0.5,0.22,0.5,0.5v9.01
		c0,0.28-0.22,0.5-0.5,0.5H14.01c-0.28,0-0.5-0.22-0.5-0.5V29.31z"/>
	<path class="st5" d="M41.51,44.27c-8.54,0-17.09,0-25.63,0c-1.22,0-2.43,0-3.65,0c-1.29,0-1.29,2,0,2c8.54,0,17.09,0,25.63,0
		c1.22,0,2.43,0,3.65,0C42.8,46.27,42.8,44.27,41.51,44.27z"/>
	<path class="st5" d="M41.51,49.51c-8.54,0-17.09,0-25.63,0c-1.22,0-2.43,0-3.65,0c-1.29,0-1.29,2,0,2c8.54,0,17.09,0,25.63,0
		c1.22,0,2.43,0,3.65,0C42.8,51.52,42.8,49.51,41.51,49.51z"/>
</g>
</svg>
