<?xml version="1.0" encoding="UTF-8"?>
<svg id="Layer_1" data-name="Layer 1" xmlns="http://www.w3.org/2000/svg" version="1.1" viewBox="0 0 2880 2880">
  <defs>
    <style>
      .cls-1 {
        fill: #000;
      }

      .cls-1, .cls-2 {
        stroke-width: 0px;
      }

      .cls-3 {
        fill: none;
        stroke: #939598;
        stroke-miterlimit: 10;
        stroke-width: 65px;
      }

      .cls-2 {
        fill: #939598;
      }

      .cls-4 {
        isolation: isolate;
      }
    </style>
  </defs>
  <path class="cls-3" d="M2830.7,1443.8c0,362.5-139.7,692.6-367.9,939-252.5,272.8-613.7,442.9-1014,442.9s-761.5-170.8-1014-442.9c-228.1-246.4-367.8-576.5-367.8-939C67,680.4,686,62,1448.8,62s1381.9,619,1381.9,1381.9h0Z"/>
  <path class="cls-2" d="M2462.1,2382.8c-252.5,272.8-613.7,442.9-1014,442.9s-761.5-170.8-1014-442.9c83.1-166,448.2-253.2,655.4-289.6,36.4-95.1,96.5-81,96.5-81,0-17.5-1.4-29.7-1.4-29.7-9.4-6-18.9-12.2-28.3-17.5-58-33.8-157.9-167.4-199.8-407-5.4,9.4-12.2,14.2-21.6,12.9-67.5-7.4-109.4-261.9-64.9-290.3,14.9-9.4,28.3-11.5,40.5-10.1-2.7-48.6-7.4-113.4-14.9-198.5-22.3-250.5,46.5-421.3,307.1-509.7,260.6-88.4,386.8,24.3,386.8,24.3,257.9-46.5,422.6,184.9,414.5,361.9-4.8,98.5-8.8,226.8-11.5,321.3,10.1,0,21.6,2.7,33.8,10.8,43.9,28.3,2.7,282.9-64.9,290.3-9.4,1.4-16.8-4.1-21.6-12.9-41.9,239.6-141.8,373.3-199.8,407-9.4,5.4-18.9,11.5-28.3,17.5,0,0,0,12.2-1.4,29.7,0,0,60.8-14.2,96.5,81,207.2,37.1,573.2,124.3,655.4,289.6h-.7.4Z"/>
  <g class="cls-4">
    <g class="cls-4">
      <path class="cls-1" d="M1337.5,2035.2l-10.8-70.2c-21.6-151.2,32.4-321.3,172.8-494.1,143.1-170.1,207.9-283.6,207.9-424s-99.9-275.4-294.4-275.4-207.9,29.7-275.4,83.7l-48.6-91.8c89.1-70.2,234.9-108,348.3-108,280.8,0,410.4,189,410.4,383.5s-89.1,299.7-234.9,475.2c-132.3,162-175.5,291.6-162,437.4l5.4,83.7h-118.8ZM1283.5,2413.2c0-70.2,45.9-121.5,110.7-121.5s108,51.3,108,121.5-40.5,121.5-110.7,121.5-110.7-56.7-108-121.5Z"/>
    </g>
  </g>
</svg>