<?xml version="1.0" standalone="no"?>
<!DOCTYPE svg PUBLIC "-//W3C//DTD SVG 20010904//EN"
 "http://www.w3.org/TR/2001/REC-SVG-20010904/DTD/svg10.dtd">
<svg version="1.0" xmlns="http://www.w3.org/2000/svg"
 width="640.000000pt" height="640.000000pt" viewBox="0 0 640.000000 640.000000"
 preserveAspectRatio="xMidYMid meet">
<metadata>
Created by potrace 1.14, written by Peter Selinger 2001-2017
</metadata>
<g transform="translate(0.000000,640.000000) scale(0.100000,-0.100000)"
fill="#000000" stroke="none">
<path d="M380 6199 c-120 -19 -269 -136 -326 -257 -36 -78 -44 -181 -18 -252
22 -62 100 -147 159 -175 46 -21 188 -24 213 -5 1 2 5 3 10 5 27 7 141 67 152
80 7 8 19 15 26 15 8 0 14 4 14 8 0 5 20 17 45 28 25 10 45 21 45 25 0 8 52
22 85 23 29 1 70 -29 95 -69 l21 -35 61 70 c34 39 65 70 69 70 19 0 7 22 -38
69 -67 68 -118 92 -201 92 -71 0 -177 -30 -198 -57 -6 -8 -19 -14 -28 -14 -9
0 -16 -3 -16 -8 0 -4 -21 -19 -47 -32 -27 -14 -50 -28 -51 -33 -6 -12 -94 -51
-126 -55 -47 -6 -73 6 -95 42 -27 43 -27 91 0 141 38 72 81 106 172 138 25 9
86 -18 125 -56 l33 -32 65 69 65 69 -41 42 c-74 76 -172 110 -270 94z"/>
<path d="M1625 5909 c-70 -10 -167 -41 -245 -78 -186 -89 -391 -288 -462 -448
-10 -24 -31 -51 -46 -59 -174 -105 -328 -243 -408 -366 -24 -37 -44 -69 -44
-72 0 -3 -11 -29 -24 -58 -35 -80 -54 -145 -66 -231 -30 -225 5 -430 106 -627
165 -321 518 -535 874 -530 177 2 256 20 418 95 156 73 312 226 416 409 39 68
51 81 100 106 175 91 342 271 432 464 62 136 78 213 78 381 0 177 -20 275 -84
414 -45 95 -154 262 -185 282 -18 11 -38 -7 -228 -201 -185 -189 -206 -214
-195 -230 7 -9 38 -49 68 -89 l54 -71 26 32 c46 60 204 218 217 218 15 0 51
-77 79 -166 14 -45 19 -90 18 -194 0 -120 -3 -144 -27 -215 -35 -105 -102
-217 -166 -280 -58 -56 -71 -53 -71 20 0 56 -27 221 -46 280 -23 71 -98 224
-129 261 -5 7 -32 43 -59 79 l-50 66 -250 -250 -251 -251 76 -76 76 -75 143
145 c79 80 150 146 157 146 17 0 56 -83 80 -170 23 -85 24 -301 3 -345 -19
-38 -53 -46 -200 -47 -142 -1 -231 22 -364 94 -45 24 -49 28 -135 105 -111
101 -203 242 -231 355 -26 100 -29 128 -28 233 1 176 8 190 98 200 101 11 171
13 217 5 l41 -7 93 93 c100 101 103 111 33 119 -21 3 -48 8 -59 12 -35 11
-107 20 -176 22 -19 1 -44 8 -55 16 -18 15 -18 17 23 54 62 56 169 126 238
154 89 36 181 50 299 44 l104 -5 93 94 c51 51 91 95 88 97 -2 2 -31 11 -64 20
-135 36 -270 44 -400 26z m-804 -1029 c6 -96 38 -259 59 -298 4 -10 23 -46 41
-82 47 -96 98 -166 180 -251 134 -136 275 -225 434 -271 88 -25 101 -27 205
-34 125 -8 129 -11 82 -60 -196 -203 -501 -267 -774 -164 -90 33 -196 109
-283 202 -127 135 -186 259 -207 438 -24 201 22 373 142 530 102 133 113 132
121 -10z"/>
<path d="M432 5356 c-34 -35 -62 -68 -62 -73 0 -11 56 -64 90 -85 24 -14 26
-14 43 8 10 13 24 24 30 24 7 0 33 20 57 45 24 25 50 45 58 45 25 0 2 18 -32
24 -19 4 -39 13 -46 21 -7 8 -17 15 -23 15 -6 0 -20 9 -32 20 l-21 20 -62 -64z"/>
<path d="M2494 4044 c-24 -6 -279 -261 -319 -320 -30 -43 -33 -99 -9 -150 29
-60 127 -94 183 -65 11 7 21 8 21 4 0 -4 72 66 159 155 136 140 160 169 166
203 9 55 -1 91 -39 135 -29 33 -37 37 -87 40 -29 1 -64 0 -75 -2z"/>
<path d="M2795 3730 c-11 -4 -90 -79 -176 -167 -168 -171 -178 -188 -160 -266
12 -49 41 -81 90 -96 49 -14 83 -14 118 1 15 7 96 82 180 168 137 139 153 159
159 197 8 54 -27 129 -71 154 -32 18 -106 23 -140 9z"/>
<path d="M2920 3265 l-155 -155 221 -223 c399 -401 950 -960 1064 -1077 124
-127 1513 -1532 1544 -1562 11 -10 25 -18 32 -18 7 0 14 -4 16 -10 2 -5 30
-11 62 -14 103 -7 177 35 228 128 22 40 23 125 1 186 l-17 48 225 227 c198
200 224 230 227 262 3 31 -2 41 -42 79 -70 68 -79 65 -255 -109 -82 -81 -155
-147 -162 -148 -49 -4 -73 5 -103 38 -63 72 -56 104 43 207 89 91 94 111 45
166 -50 55 -85 73 -119 60 -14 -5 -54 -39 -88 -74 -78 -80 -94 -88 -140 -75
-64 17 -101 90 -73 143 7 15 62 77 121 137 104 106 107 110 101 145 -6 32 -65
102 -88 105 -10 2 -45 2 -57 0 -5 -1 -96 -89 -202 -196 -106 -107 -197 -195
-202 -195 -6 0 -36 28 -69 62 l-59 62 88 89 c344 351 373 383 373 412 0 42
-77 115 -122 115 -30 0 -48 -14 -171 -138 -75 -76 -148 -144 -161 -152 -33
-17 -74 -6 -113 33 -28 26 -33 38 -33 76 1 43 5 51 75 125 92 97 95 116 32
183 -31 32 -53 46 -76 49 -30 4 -41 -4 -115 -76 -73 -71 -86 -80 -120 -80 -49
0 -106 54 -106 101 0 46 13 64 131 186 60 61 109 120 109 130 0 31 -54 99 -97
122 -12 6 -30 8 -40 5 -10 -4 -108 -96 -218 -205 l-201 -199 -331 333 c-182
182 -444 448 -583 590 -140 141 -256 257 -259 257 -4 0 -76 -70 -161 -155z"/>
</g>
</svg>
